<svg width="22" height="22" viewBox="0 0 22 22" fill="none" xmlns="http://www.w3.org/2000/svg">
<mask id="mask0_14_1830" style="mask-type:alpha" maskUnits="userSpaceOnUse" x="0" y="0" width="22" height="22">
<rect width="22" height="22" fill="#D9D9D9"/>
</mask>
<g mask="url(#mask0_14_1830)">
<path d="M6.44345 12.8333C5.9381 12.8333 5.50549 12.6538 5.14562 12.2948C4.78575 11.9358 4.60582 11.5042 4.60582 11C4.60582 10.4958 4.78575 10.0642 5.14562 9.70521C5.50549 9.34618 5.9381 9.16667 6.44345 9.16667C6.9488 9.16667 7.38141 9.34618 7.74128 9.70521C8.10115 10.0642 8.28109 10.4958 8.28109 11C8.28109 11.5042 8.10115 11.9358 7.74128 12.2948C7.38141 12.6538 6.9488 12.8333 6.44345 12.8333ZM6.44345 16.5C4.91209 16.5 3.61043 15.9653 2.53847 14.8958C1.46652 13.8264 0.930542 12.5278 0.930542 11C0.930542 9.47222 1.46652 8.17361 2.53847 7.10417C3.61043 6.03472 4.91209 5.5 6.44345 5.5C7.46947 5.5 8.39977 5.75208 9.23436 6.25625C10.069 6.76042 10.7313 7.425 11.2213 8.25H19.3069L22.0634 11L17.9287 15.125L16.091 13.75L14.2534 15.125L12.3009 13.75H11.2213C10.7313 14.575 10.069 15.2396 9.23436 15.7438C8.39977 16.2479 7.46947 16.5 6.44345 16.5ZM6.44345 14.6667C7.30102 14.6667 8.05521 14.4069 8.70604 13.8875C9.35687 13.3681 9.78948 12.7111 10.0039 11.9167H12.8752L14.2075 12.8563L16.091 11.4583L17.722 12.7188L19.4447 11L18.5259 10.0833H10.0039C9.78948 9.28889 9.35687 8.63194 8.70604 8.1125C8.05521 7.59306 7.30102 7.33333 6.44345 7.33333C5.43275 7.33333 4.56753 7.69236 3.84779 8.41042C3.12805 9.12847 2.76818 9.99167 2.76818 11C2.76818 12.0083 3.12805 12.8715 3.84779 13.5896C4.56753 14.3076 5.43275 14.6667 6.44345 14.6667Z" fill="#9D9D9D"/>
</g>
</svg>
