<svg width="22" height="22" viewBox="0 0 22 22" fill="none" xmlns="http://www.w3.org/2000/svg">
<mask id="mask0_14_1824" style="mask-type:alpha" maskUnits="userSpaceOnUse" x="0" y="0" width="22" height="22">
<rect width="22" height="22" fill="#D9D9D9"/>
</mask>
<g mask="url(#mask0_14_1824)">
<path d="M3.687 18.3333C3.18165 18.3333 2.74904 18.1538 2.38917 17.7948C2.0293 17.4357 1.84937 17.0041 1.84937 16.5V5.49996C1.84937 4.99579 2.0293 4.5642 2.38917 4.20517C2.74904 3.84614 3.18165 3.66663 3.687 3.66663H18.3881C18.8934 3.66663 19.3261 3.84614 19.6859 4.20517C20.0458 4.5642 20.2257 4.99579 20.2257 5.49996V16.5C20.2257 17.0041 20.0458 17.4357 19.6859 17.7948C19.3261 18.1538 18.8934 18.3333 18.3881 18.3333H3.687ZM11.0375 11.9166L3.687 7.33329V16.5H18.3881V7.33329L11.0375 11.9166ZM11.0375 10.0833L18.3881 5.49996H3.687L11.0375 10.0833ZM3.687 7.33329V5.49996V16.5V7.33329Z" fill="#9D9D9D"/>
</g>
</svg>
